<svg xmlns="http://www.w3.org/2000/svg" viewBox="0 0 231 231" width="231" height="231">
	<style>
		tspan { white-space:pre }
		.shp0 { fill: none;stroke: #262626;stroke-linecap:round;stroke-linejoin:round;stroke-width: 7 } 
	</style>
	<g id="Icons">
		<path id="Layer" class="shp0" d="M22.5 2.5L207.5 2.5C218.56 2.5 227.5 11.44 227.5 22.5L227.5 207.5C227.5 218.56 218.56 227.5 207.5 227.5L22.5 227.5C11.44 227.5 2.5 218.56 2.5 207.5L2.5 22.5C2.5 11.44 11.44 2.5 22.5 2.5Z" />
		<path id="Layer" class="shp0" d="M94.62 46L82.06 46C80.41 46 78.78 46.32 77.26 46.95C75.74 47.58 74.35 48.51 73.19 49.67C72.03 50.83 71.1 52.22 70.47 53.74C69.84 55.26 69.52 56.89 69.52 58.54L69.52 165.18" />
		<path id="Layer" class="shp0" d="M151.06 71.1L151.06 65.25L151.06 64.82" />
		<path id="Layer" class="shp0" d="M94.62 46L163.62 46C165.27 46 166.9 46.32 168.42 46.95C169.94 47.58 171.32 48.51 172.49 49.67C173.65 50.84 174.58 52.22 175.21 53.74C175.84 55.26 176.16 56.89 176.16 58.54L176.16 65.25L151.06 65.25" />
		<path id="Layer" class="shp0" d="M163.62 46C161.97 46 160.34 46.32 158.82 46.95C157.29 47.58 155.91 48.5 154.74 49.67C153.58 50.83 152.65 52.22 152.02 53.74C151.39 55.26 151.06 56.89 151.06 58.54L151.06 64.82" />
		<path id="Layer" class="shp0" d="M138.52 184C136.87 184 135.25 183.67 133.73 183.04C132.21 182.41 130.83 181.49 129.66 180.32C128.5 179.16 127.58 177.78 126.95 176.26C126.32 174.74 126 173.11 126 171.46L126 165.18L57 165.18C56.59 165.18 56.18 165.26 55.8 165.42C55.42 165.58 55.07 165.81 54.78 166.1C54.49 166.39 54.26 166.74 54.1 167.12C53.94 167.5 53.86 167.91 53.86 168.32L53.86 171.46C53.86 173.11 54.18 174.74 54.81 176.26C55.44 177.78 56.36 179.16 57.52 180.32C58.69 181.49 60.07 182.41 61.59 183.04C63.11 183.67 64.73 184 66.38 184L138.52 184C140.17 184 141.8 183.68 143.32 183.05C144.84 182.42 146.23 181.49 147.39 180.33C148.55 179.17 149.48 177.78 150.11 176.26C150.74 174.74 151.06 173.11 151.06 171.46L151.06 71.1" />
	</g>
</svg>