<svg xmlns="http://www.w3.org/2000/svg" viewBox="0 0 232 232" width="232" height="232">
	<style>
		tspan { white-space:pre }
		.shp0 { fill: none;stroke: #262626;stroke-linecap:round;stroke-linejoin:round;stroke-width: 7 } 
	</style>
	<g id="Icons">
		<path id="Layer" class="shp0" d="M680.52 209C678.87 209 677.25 208.67 675.73 208.04C674.21 207.41 672.83 206.49 671.66 205.32C670.5 204.16 669.58 202.78 668.95 201.26C668.32 199.74 668 198.11 668 196.46L668 190.18L599 190.18C598.59 190.18 598.18 190.26 597.8 190.42C597.42 190.58 597.07 190.81 596.78 191.1C596.49 191.39 596.26 191.74 596.1 192.12C595.94 192.5 595.86 192.91 595.86 193.32L595.86 196.46C595.86 198.11 596.18 199.74 596.81 201.26C597.44 202.78 598.36 204.16 599.52 205.32C600.69 206.49 602.07 207.41 603.59 208.04C605.11 208.67 606.73 209 608.38 209L680.52 209C682.17 209 683.8 208.68 685.32 208.05C686.84 207.42 688.23 206.49 689.39 205.33C690.55 204.17 691.48 202.78 692.11 201.26C692.74 199.74 693.06 198.11 693.06 196.46L693.06 96.1" />
		<path id="Layer" class="shp0" d="M24.04 3.5L209.04 3.5C220.1 3.5 229.04 12.44 229.04 23.5L229.04 208.5C229.04 219.56 220.1 228.5 209.04 228.5L24.04 228.5C12.98 228.5 4.04 219.56 4.04 208.5L4.04 23.5C4.04 12.44 12.98 3.5 24.04 3.5Z" />
		<path id="Layer" class="shp0" d="M164.22 100.7L164.22 148.7C164.22 153.86 163.2 158.97 161.23 163.74C159.25 168.51 156.36 172.84 152.71 176.49C149.06 180.14 144.73 183.03 139.96 185.01C135.19 186.98 130.08 188 124.92 188L108.17 188C103.01 188 97.9 186.98 93.13 185.01C88.36 183.03 84.03 180.14 80.38 176.49C76.73 172.84 73.84 168.51 71.86 163.74C69.89 158.97 68.87 153.86 68.87 148.7L68.87 101.31" />
		<path id="Layer" class="shp0" d="M68.87 101.34L68.87 55.92C68.87 54.35 69.18 52.8 69.78 51.36C70.38 49.91 71.25 48.6 72.36 47.49C73.47 46.38 74.78 45.51 76.23 44.91C77.67 44.31 79.22 44 80.79 44L80.79 44C82.35 44 83.9 44.31 85.35 44.91C86.79 45.51 88.11 46.39 89.21 47.49C90.32 48.6 91.2 49.92 91.79 51.36C92.39 52.81 92.7 54.36 92.7 55.92L92.7 101.34" />
		<path id="Layer" class="shp0" d="M140.38 101.34L140.38 55.92C140.38 54.35 140.69 52.8 141.29 51.36C141.89 49.91 142.76 48.6 143.87 47.49C144.98 46.38 146.29 45.51 147.74 44.91C149.18 44.31 150.73 44 152.3 44L152.3 44C153.87 44 155.42 44.31 156.86 44.91C158.31 45.51 159.62 46.38 160.73 47.49C161.84 48.6 162.71 49.91 163.31 51.36C163.91 52.8 164.22 54.35 164.22 55.92L164.22 101.34" />
		<path id="Layer" class="shp0" d="M92.7 113.58L92.7 91.36C92.7 89.79 93.01 88.24 93.61 86.8C94.21 85.35 95.08 84.04 96.19 82.93C97.3 81.82 98.61 80.95 100.06 80.35C101.5 79.75 103.05 79.44 104.62 79.44L104.62 79.44C106.19 79.44 107.74 79.75 109.18 80.34C110.63 80.94 111.94 81.82 113.05 82.93C114.16 84.04 115.04 85.35 115.64 86.8C116.23 88.24 116.54 89.79 116.54 91.36L116.54 97.48" />
		<path id="Layer" class="shp0" d="M116.54 115.28L116.54 91.36C116.54 89.79 116.85 88.24 117.45 86.8C118.05 85.35 118.92 84.04 120.03 82.93C121.14 81.82 122.45 80.95 123.9 80.35C125.34 79.75 126.89 79.44 128.46 79.44L128.46 79.44C130.03 79.44 131.58 79.75 133.02 80.34C134.47 80.94 135.78 81.82 136.89 82.93C138 84.04 138.88 85.35 139.48 86.8C140.07 88.24 140.38 89.79 140.38 91.36L140.38 120.36C140.38 121.93 140.07 123.48 139.47 124.92C138.87 126.37 138 127.68 136.89 128.79C135.78 129.9 134.47 130.77 133.02 131.37C131.58 131.97 130.03 132.28 128.46 132.28L128.46 132.28C127.87 132.28 127.28 132.24 126.7 132.16C126.12 132.08 125.54 131.95 124.98 131.78C124.42 131.61 123.87 131.4 123.33 131.15C122.8 130.9 122.29 130.61 121.8 130.28" />
		<path id="Layer" class="shp0" d="M68.87 127.58C68.87 125.74 69.23 123.92 69.94 122.22C70.64 120.52 71.67 118.98 72.97 117.68C74.27 116.38 75.81 115.35 77.51 114.65C79.21 113.94 81.03 113.58 82.87 113.58L110.42 113.58C111.99 113.58 113.54 113.89 114.98 114.49C116.43 115.09 117.74 115.96 118.85 117.07C119.96 118.18 120.83 119.49 121.43 120.94C122.03 122.38 122.34 123.93 122.34 125.5L122.34 125.5C122.34 127.07 122.03 128.62 121.44 130.06C120.84 131.51 119.96 132.82 118.85 133.93C117.74 135.04 116.43 135.92 114.98 136.52C113.54 137.11 111.99 137.42 110.42 137.42L91.87 137.42" />
		<path id="Layer" class="shp0" d="M105.59 137.42C107.28 137.42 108.96 137.75 110.52 138.4C112.09 139.05 113.51 140 114.7 141.2C115.9 142.39 116.85 143.81 117.5 145.38C118.15 146.94 118.48 148.62 118.48 150.31L118.48 158.68" />
	</g>
</svg>