<svg xmlns="http://www.w3.org/2000/svg" viewBox="0 0 231 231" width="231" height="231">
	<style>
		tspan { white-space:pre }
		.shp0 { fill: none;stroke: #262626;stroke-linecap:round;stroke-linejoin:round;stroke-width: 7 } 
	</style>
	<g id="Icons">
		<path id="Layer" class="shp0" d="M22.96 3.5L207.96 3.5C219.02 3.5 227.96 12.44 227.96 23.5L227.96 208.5C227.96 219.56 219.02 228.5 207.96 228.5L22.96 228.5C11.9 228.5 2.96 219.56 2.96 208.5L2.96 23.5C2.96 12.44 11.9 3.5 22.96 3.5Z" />
		<g id="scissor">
			<path id="Layer" class="shp0" d="M117.28 142.18L128.55 155.27" />
			<path id="Layer" class="shp0" d="M115.46 104.54L68.08 44C59.82 59.17 61.99 78.59 73.33 91.1L100.39 122.55" />
			<path id="Layer" class="shp0" d="M144.91 142.18L131.82 125.45" />
			<path id="Layer" class="shp0" d="M87.64 142.18L164.47 44C172.73 59.17 170.56 78.59 159.22 91.1L102.37 158.55" />
			<path id="Layer" class="shp0" d="M117.09 120.91C117.75 120.91 118.36 121.3 118.61 121.92C118.87 122.53 118.73 123.23 118.26 123.71C117.79 124.18 117.09 124.32 116.47 124.07C115.86 123.81 115.46 123.21 115.46 122.55C115.46 122.34 115.5 122.12 115.58 121.92C115.66 121.72 115.78 121.54 115.93 121.39C116.09 121.24 116.27 121.12 116.46 121.04C116.66 120.95 116.88 120.91 117.09 120.91" />
			<path id="Layer" class="shp0" d="M79.46 188C66.79 188 56.55 177.76 56.55 165.09C56.55 152.42 66.79 142.18 79.46 142.18C92.13 142.18 102.37 152.42 102.37 165.09C102.37 177.76 92.13 188 79.46 188Z" />
			<path id="Layer" class="shp0" d="M79.46 174.91C74.03 174.91 69.64 170.52 69.64 165.09C69.64 159.66 74.03 155.27 79.46 155.27C84.89 155.27 89.28 159.66 89.28 165.09C89.28 170.52 84.89 174.91 79.46 174.91Z" />
			<path id="Layer" class="shp0" d="M151.46 188C138.79 188 128.55 177.76 128.55 165.09C128.55 152.42 138.79 142.18 151.46 142.18C164.13 142.18 174.37 152.42 174.37 165.09C174.37 177.76 164.13 188 151.46 188Z" />
			<path id="Layer" class="shp0" d="M151.46 174.91C146.03 174.91 141.64 170.52 141.64 165.09C141.64 159.66 146.03 155.27 151.46 155.27C156.89 155.27 161.28 159.66 161.28 165.09C161.28 170.52 156.89 174.91 151.46 174.91Z" />
		</g>
	</g>
</svg>